<mxfile host="app.diagrams.net" modified="2020-11-30T18:29:29.521Z" agent="5.0 (Windows)" etag="C0bpZQQxLXu0XLoTZg0D" version="13.10.4" type="github">
  <diagram id="CQw5UChWCD5wE_zxsEA3" name="Page-1">
    <mxGraphModel dx="1038" dy="547" grid="1" gridSize="10" guides="1" tooltips="1" connect="1" arrows="1" fold="1" page="1" pageScale="1" pageWidth="827" pageHeight="1169" math="0" shadow="0">
      <root>
        <mxCell id="0" />
        <mxCell id="1" parent="0" />
        <mxCell id="TqpXrbU4JHFVRcjtBOLV-1" value="&lt;div&gt;User&lt;/div&gt;" style="shape=umlActor;verticalLabelPosition=bottom;verticalAlign=top;html=1;outlineConnect=0;" parent="1" vertex="1">
          <mxGeometry x="250" y="360" width="30" height="60" as="geometry" />
        </mxCell>
        <mxCell id="2B9PXJCXpsptHb29Airq-2" value="" style="rounded=0;whiteSpace=wrap;html=1;" parent="1" vertex="1">
          <mxGeometry x="330" y="130" width="270" height="550" as="geometry" />
        </mxCell>
        <mxCell id="2B9PXJCXpsptHb29Airq-4" value="View Transcript" style="ellipse;whiteSpace=wrap;html=1;" parent="1" vertex="1">
          <mxGeometry x="410" y="255" width="120" height="80" as="geometry" />
        </mxCell>
        <mxCell id="2B9PXJCXpsptHb29Airq-6" value="&lt;div&gt;View Keywords&lt;/div&gt;" style="ellipse;whiteSpace=wrap;html=1;" parent="1" vertex="1">
          <mxGeometry x="410" y="360" width="120" height="80" as="geometry" />
        </mxCell>
        <mxCell id="2B9PXJCXpsptHb29Airq-10" value="&lt;div&gt;Change Setting&lt;/div&gt;" style="ellipse;whiteSpace=wrap;html=1;" parent="1" vertex="1">
          <mxGeometry x="410" y="470" width="120" height="80" as="geometry" />
        </mxCell>
        <mxCell id="2B9PXJCXpsptHb29Airq-11" value="Manage Lectures" style="ellipse;whiteSpace=wrap;html=1;" parent="1" vertex="1">
          <mxGeometry x="410" y="570" width="120" height="80" as="geometry" />
        </mxCell>
        <mxCell id="2B9PXJCXpsptHb29Airq-12" value="Application" style="text;html=1;strokeColor=none;fillColor=none;align=center;verticalAlign=middle;whiteSpace=wrap;rounded=0;" parent="1" vertex="1">
          <mxGeometry x="330" y="130" width="70" height="20" as="geometry" />
        </mxCell>
        <mxCell id="2B9PXJCXpsptHb29Airq-20" value="" style="endArrow=none;html=1;exitX=0;exitY=0.5;exitDx=0;exitDy=0;entryX=1;entryY=0.3333333333333333;entryDx=0;entryDy=0;entryPerimeter=0;" parent="1" source="2B9PXJCXpsptHb29Airq-4" target="TqpXrbU4JHFVRcjtBOLV-1" edge="1">
          <mxGeometry width="50" height="50" relative="1" as="geometry">
            <mxPoint x="390" y="370" as="sourcePoint" />
            <mxPoint x="260" y="350" as="targetPoint" />
          </mxGeometry>
        </mxCell>
        <mxCell id="2B9PXJCXpsptHb29Airq-21" value="" style="endArrow=none;html=1;exitX=0;exitY=0.5;exitDx=0;exitDy=0;entryX=1;entryY=0.3333333333333333;entryDx=0;entryDy=0;entryPerimeter=0;" parent="1" source="2B9PXJCXpsptHb29Airq-6" target="TqpXrbU4JHFVRcjtBOLV-1" edge="1">
          <mxGeometry width="50" height="50" relative="1" as="geometry">
            <mxPoint x="390" y="370" as="sourcePoint" />
            <mxPoint x="260" y="350" as="targetPoint" />
          </mxGeometry>
        </mxCell>
        <mxCell id="2B9PXJCXpsptHb29Airq-22" value="" style="endArrow=none;html=1;exitX=0;exitY=0.5;exitDx=0;exitDy=0;entryX=1;entryY=0.3333333333333333;entryDx=0;entryDy=0;entryPerimeter=0;" parent="1" source="2B9PXJCXpsptHb29Airq-10" target="TqpXrbU4JHFVRcjtBOLV-1" edge="1">
          <mxGeometry width="50" height="50" relative="1" as="geometry">
            <mxPoint x="390" y="370" as="sourcePoint" />
            <mxPoint x="210" y="340" as="targetPoint" />
          </mxGeometry>
        </mxCell>
        <mxCell id="2B9PXJCXpsptHb29Airq-23" value="" style="endArrow=none;html=1;exitX=0;exitY=0.5;exitDx=0;exitDy=0;entryX=1;entryY=0.3333333333333333;entryDx=0;entryDy=0;entryPerimeter=0;" parent="1" source="2B9PXJCXpsptHb29Airq-11" target="TqpXrbU4JHFVRcjtBOLV-1" edge="1">
          <mxGeometry width="50" height="50" relative="1" as="geometry">
            <mxPoint x="390" y="370" as="sourcePoint" />
            <mxPoint x="260" y="350" as="targetPoint" />
          </mxGeometry>
        </mxCell>
        <mxCell id="4mFw98LNMVKKuSspz1cg-1" value="Start / Stop Recording" style="ellipse;whiteSpace=wrap;html=1;" parent="1" vertex="1">
          <mxGeometry x="410" y="150" width="120" height="80" as="geometry" />
        </mxCell>
        <mxCell id="4mFw98LNMVKKuSspz1cg-2" value="" style="endArrow=none;html=1;entryX=0;entryY=0.5;entryDx=0;entryDy=0;exitX=1;exitY=0.3333333333333333;exitDx=0;exitDy=0;exitPerimeter=0;" parent="1" source="TqpXrbU4JHFVRcjtBOLV-1" target="4mFw98LNMVKKuSspz1cg-1" edge="1">
          <mxGeometry width="50" height="50" relative="1" as="geometry">
            <mxPoint x="390" y="430" as="sourcePoint" />
            <mxPoint x="440" y="380" as="targetPoint" />
          </mxGeometry>
        </mxCell>
      </root>
    </mxGraphModel>
  </diagram>
</mxfile>
